<?xml version="1.0" encoding="utf-8" ?>
<svg xmlns="http://www.w3.org/2000/svg" xmlns:xlink="http://www.w3.org/1999/xlink" width="3391" height="3391">
	<path fill="#FEFEFE" transform="scale(3.31152 3.31152)" d="M0 0L1024 0L1024 1024L0 1024L0 0Z"/>
	<path fill="#010516" transform="scale(3.31152 3.31152)" d="M503.713 501.244C502.148 508.068 500.64 514.702 500.007 521.689C498.684 520.742 497.716 520.494 496.121 520.226C498.147 513.667 500.772 507.441 503.713 501.244Z"/>
	<path fill="#041331" transform="scale(3.31152 3.31152)" d="M919.526 219.924C920.852 220.02 922.199 220.23 923.185 221.213C924.145 222.17 924.46 223.464 924.401 224.781C924.244 228.227 921.884 232.43 919.4 234.745C918.242 234.105 917.146 232.657 916.488 231.534C915.145 229.24 914.702 226.63 915.515 224.06C916.221 221.831 917.547 221 919.526 219.924Z"/>
	<path fill="#041331" transform="scale(3.31152 3.31152)" d="M862.277 180.228C867.045 179.853 871.127 180.421 875.432 182.628C880.514 185.234 884.381 189.542 888.42 193.471C895.904 200.753 903.813 208.914 913.172 213.665Q908.935 212.349 904.734 210.921C896.288 205.622 888.399 195.217 880.419 191.555C877.143 190.051 872.931 189.805 869.4 188.989C866.606 188.343 863.857 187.344 861.14 186.427C864.412 185.323 867.582 184.423 870.975 183.776C868.023 182.168 865.74 180.999 862.295 180.852C862.107 180.844 861.919 180.84 861.731 180.834L862.277 180.228Z"/>
	<path fill="#041331" transform="scale(3.31152 3.31152)" d="M697.757 529.994L698.051 530.212L698.13 530.984C694.261 536.514 689.682 541.581 685.629 546.99C674.906 561.301 664.372 575.971 652.906 589.697C652.86 589.57 652.809 589.446 652.77 589.316C649.379 577.879 655.219 560.833 660.127 550.608C664.376 547.672 669.159 545.322 673.681 542.831Q685.59 536.171 697.757 529.994Z"/>
	<path fill="#737984" transform="scale(3.31152 3.31152)" d="M165.961 287.38C173.346 296.185 179.673 306.001 186.317 315.371C190.641 321.468 195.986 327.896 199.477 334.473C195.094 334.449 188.007 334.211 184.033 336.107C181.234 333.661 178.025 327.64 175.662 324.347Q162.928 306.92 150.542 289.244C155.62 288.864 161.021 288.627 165.961 287.38Z"/>
	<path fill="#041331" transform="scale(3.31152 3.31152)" d="M681.329 309.531C680.671 313.648 672.207 331.036 670.108 337.28C657.394 375.11 658.531 410.649 672.611 447.962C671 445.718 669.572 443.338 668.098 441.002C657.854 423.274 651.522 403.803 651.179 383.249C650.702 354.579 661.531 330.099 681.329 309.531Z"/>
	<path fill="#041331" transform="scale(3.31152 3.31152)" d="M565.36 434.034C565.124 436.786 560.608 443.063 559.313 445.977C543.865 480.731 553.661 519.266 570.397 551.416C575.206 560.654 581.836 569.026 585.562 578.788L578.844 570.045C564.085 552.179 544.389 530.159 538.808 507.35C537.451 501.805 537.181 496.096 537.334 490.407C537.927 468.294 549.705 448.985 565.36 434.034Z"/>
	<path fill="#041331" transform="scale(3.31152 3.31152)" d="M859.395 335.572L859.583 336.054C840.102 358.467 797.308 412.768 770.493 422.412C763.878 424.791 757.24 424.866 750.808 421.758C743.881 418.41 738.254 412.767 733.166 407.123C717.49 389.733 707.586 370.265 699.795 348.376C698.348 343.817 697.102 339.172 695.763 334.579C699.214 339.908 702.018 345.813 705.121 351.363Q710.875 361.547 717.366 371.278C725.81 384.21 743.51 407.541 759.154 410.5C762.673 411.165 765.875 410.866 769.213 409.581C787.615 402.496 818.775 368.629 834.918 354.181C842.617 347.29 850.93 341.469 859.395 335.572Z"/>
	<path fill="#041331" transform="scale(3.31152 3.31152)" d="M612.365 677.932C612.564 678.282 612.879 678.589 612.962 678.983C613.537 681.715 612.977 685.925 612.984 688.785L613.061 719.588L613.048 845.14C610.922 843.232 608.998 840.949 607.041 838.859C604.41 836.341 601.405 833.838 599.441 830.756L599.484 690.138L612.365 677.932Z"/>
	<path fill="#041331" transform="scale(3.31152 3.31152)" d="M583.85 704.375C585.389 709.249 584.481 763.863 584.498 774.139C584.526 790.459 585.194 806.943 584.648 823.24C576.716 818.168 575.165 813.796 571.652 805.632C566.097 794.217 553.348 761.816 554.486 749.984C556.036 733.876 571.689 714.284 583.85 704.375Z"/>
	<path fill="#737984" transform="scale(3.31152 3.31152)" d="M238.901 285.883C250.936 300.551 260.988 317.23 272.096 332.628C263.972 330.738 223.525 329.699 217.632 332.516C211.757 326.07 206.969 318.115 201.774 311.075C195.74 302.899 188.955 295.003 183.393 286.516C193.595 286.548 203.799 286.14 214.001 286.03C222.296 285.941 230.611 286.178 238.901 285.883Z"/>
	<path fill="#041331" transform="scale(3.31152 3.31152)" d="M519.041 689.731C522.586 681.758 526.797 673.51 528.16 664.815C529.588 655.704 528.588 645.899 525.597 637.192C522.974 629.555 518.805 622.581 514.857 615.577C503.578 595.562 492.285 575.899 491.665 552.253C491.38 541.354 493.629 530.766 496.121 520.226C497.716 520.494 498.684 520.742 500.007 521.689C498.405 557.508 505.945 574.561 524.377 604.219C531.616 615.867 537.777 627.278 541.201 640.671C545.398 634.336 549.837 627.699 550.408 619.9C551.878 599.783 532.376 564.264 519.118 548.872C521.95 550.973 524.586 553.364 527.168 555.762C543.693 571.11 561.767 592.593 562.467 616.267Q562.535 618.666 562.346 621.059Q562.157 623.452 561.714 625.811Q561.271 628.17 560.578 630.468Q559.885 632.766 558.951 634.977C555.582 642.926 550.259 649.631 545.281 656.594C536.985 668.197 528.838 679.319 519.041 689.731Z"/>
	<path fill="#737984" transform="scale(3.31152 3.31152)" d="M316.612 288.614C331.056 291.402 345.694 294.808 359.563 299.762C365.583 301.913 382.869 310.165 387.287 310.755C391.888 315.917 397.241 325.141 401.671 331.17C407.831 339.552 413.82 348.075 420.033 356.413C424.465 362.359 429.448 368.213 433.291 374.551C408.607 363.621 384.463 351.749 358.213 344.792C353.261 340.958 322.231 296.408 316.612 288.614Z"/>
	<path fill="#041331" transform="scale(3.31152 3.31152)" d="M184.033 336.107C188.007 334.211 195.094 334.449 199.477 334.473C216.53 355.432 231.602 378.226 247.261 400.236L315.123 494.585L356.889 552.664C362.911 561.099 370.445 569.677 375.101 578.868C370.817 580.746 366.462 582.961 361.91 584.079C350.981 567.291 338.792 551.322 327.06 535.093L289.378 482.317L184.033 336.107Z"/>
	<path fill="#041331" transform="scale(3.31152 3.31152)" d="M358.213 344.792C384.463 351.749 408.607 363.621 433.291 374.551C438.964 380.235 443.491 388.36 448.341 394.873L474.655 430.739C480.779 439.173 487.2 447.519 492.461 456.53C483.444 467.413 473.467 486.147 470.231 500C453.433 478.277 437.98 455.566 421.951 433.284C400.713 403.76 379.048 374.619 358.213 344.792Z"/>
	<path fill="#041331" transform="scale(3.31152 3.31152)" d="M217.632 332.516C223.525 329.699 263.972 330.738 272.096 332.628C278.828 340.932 284.883 349.832 291.124 358.506L314.247 390.273L369.469 465.844Q391.017 495.764 412.086 526.023C418.941 535.899 427.241 546.237 432.486 557.061C418.796 563.39 404.419 567.36 390.411 572.81C379.718 560.157 370.254 546.322 360.758 532.758Q348.385 515.09 335.662 497.674L217.632 332.516Z"/>
	<path fill="#041331" transform="scale(3.31152 3.31152)" d="M477.227 607.753C477.749 608.173 486.873 626.804 488.982 630.018C492.485 635.354 497.731 638.947 501.622 643.86C502.187 644.574 502.584 645.306 502.937 646.141C505.091 651.237 505.3 656.494 504.937 661.931C503.73 680.012 494.189 687.842 484.435 701.709C482.715 704.153 480.719 707.039 480.242 710.038C479.151 716.896 491.247 750.55 493.562 759.985C497.342 775.391 500.987 792.155 501.114 808.084C501.195 818.321 496.781 819.36 496.154 825.6C495.302 834.073 506.599 844.686 511.744 850.628C509.644 859.538 510.283 868.387 508.902 877.364C513.385 885.079 520.306 891.611 525.892 898.585C538.256 914.021 550.341 929.67 562.887 944.962L578.494 945.085C565.984 927.59 551.251 911.782 538.781 894.299C545.252 896.22 551.299 896.798 558.039 896.399C562.023 896.163 568.264 895.86 570.946 892.512C573.355 889.504 572.86 885.373 572.523 881.798C576.013 882.22 579.11 882.316 582.596 881.936C597.998 903.594 614.833 924.204 631.237 945.092L646.405 945.007C642.949 939.909 639.046 935.06 635.375 930.108Q617.502 906.219 598.922 882.877C605.311 883.673 611.325 883.498 617.695 882.594C635.38 908.436 655.313 932.851 673.786 958.143C655.433 958.79 636.971 958.39 618.606 958.354L532.029 958.261C520.731 945.703 511.026 931.391 500.258 918.329L482.868 940.015C478.133 945.96 473.281 951.85 468.852 958.026C457.411 958.401 445.876 958.136 434.428 958.118L374.583 957.986C384.368 944.836 394.937 932.073 405.212 919.294C412.278 910.506 420.464 901.529 425.534 891.417Q426.946 888.639 428.132 885.756Q429.317 882.873 430.268 879.905Q431.219 876.937 431.93 873.902Q432.64 870.868 433.106 867.786C435.646 849.919 434.455 830.696 434.367 812.669L434.061 735.963C433.987 714.831 433.55 693.632 435.706 672.588C440.702 677.687 446.462 681.855 451.441 686.898C456.542 692.066 460.814 698.53 464.887 704.526Q464.307 744.738 464.726 784.951Q465.028 807.519 464.779 830.087C464.72 839.188 465.084 848.554 463.984 857.589C463.052 865.249 461.087 872.932 456.939 879.517C453.379 885.17 447.951 889.521 443.632 894.584C434.576 905.199 425.855 916.148 417.11 927.02C412.294 933.008 406.966 938.875 402.707 945.269L402.289 945.903C408.294 945.854 414.312 945.597 420.316 945.426Q434.752 926.852 449.71 908.696C456.866 899.892 466.324 890.302 471.118 880.032C474.024 873.805 475.547 866.353 476.201 859.546C477.594 845.048 476.655 829.816 476.659 815.243L476.585 732.974C476.513 716.69 471.728 712.119 478.791 695.719C472.836 688.805 466.949 680.646 460.13 674.642C459.246 648.645 467.374 630.873 477.227 607.753Z"/>
	<path fill="#041331" transform="scale(3.31152 3.31152)" d="M175.081 159.66C181.417 153.726 187.97 147.972 194.203 141.937C221.077 115.916 247.041 88.883 274.917 63.9207C275.083 83.2911 274.51 102.662 274.45 122.034C285.792 129.581 296.828 138.051 305.681 148.475C312.722 156.767 318.914 165.809 325.271 174.628L355.523 216.744L452.707 351.638L494.129 408.843C500.141 417.099 507.476 425.213 512.255 434.224C509.416 437.696 505.893 441.066 502.513 444.02Q476.025 406.273 448.493 369.28L379.785 274.046L319.152 190.587C311.089 179.657 304.23 167.932 295.193 157.738C285.006 146.247 272.762 137.24 260.036 128.791L259.948 97.6254C250.061 106.885 238.038 117 229.511 127.322C245.523 135.478 262.432 147.076 275.158 159.834C286.167 170.871 295.557 184.16 304.783 196.708L340.146 245.342L371.295 288.06C376.644 295.454 382.565 302.962 387.287 310.755C382.869 310.165 365.583 301.913 359.563 299.762C345.694 294.808 331.056 291.402 316.612 288.614C308.417 278.804 301.379 267.924 293.87 257.577C283.347 243.077 272.515 228.779 262.146 214.169C252.166 200.107 242.937 185.462 230.375 173.472C223.033 166.464 213.153 159.12 202.725 158.125C198.03 157.677 193.114 158.377 188.453 158.979C202.361 164.978 213.544 175.375 223.44 186.642C229.278 193.289 234.158 200.633 239.273 207.833L256.982 232.508L301.851 295.513C303.567 297.973 305.957 299.854 307.774 302.28Q321.069 319.956 334.082 337.841L463.669 518.585C461.927 526.379 459.84 534.054 457.709 541.749C453.859 544.346 450.205 547.289 446.339 549.827C436.669 534.599 426.212 519.969 415.817 505.233L376.318 449.582L315.792 366.054C307.974 355.286 300.629 344.161 292.643 333.525C288.402 328.719 284.961 322.747 281.207 317.506L258.144 285.529C250.986 276.522 244.445 266.944 237.675 257.636L208.101 217.434C200.872 207.566 193.915 196.966 185.589 188.016C176.83 178.601 165.681 169.394 154.912 162.37C153.892 152.077 154.306 141.224 154.921 130.908C149.885 135.201 145.382 140.075 140.676 144.72Q131.674 153.579 122.288 162.03C130.452 166.437 138.725 170.636 146.534 175.668C173.754 193.206 187.424 214.392 205.77 239.977C216.776 255.326 228.173 270.325 238.901 285.883C230.611 286.178 222.296 285.941 214.001 286.03C203.799 286.14 193.595 286.548 183.393 286.516Q169.63 267.323 155.361 248.502C145.541 235.29 135.923 220.761 123.281 210.057C115.943 203.844 107.009 198.653 97.3985 197.102C92.1582 196.256 88.013 197.184 83.0837 198.92C109.874 207.433 120.638 225.845 136.13 246.959C146.027 260.447 155.728 274.149 165.961 287.38C161.021 288.627 155.62 288.864 150.542 289.244C143.486 279.183 136.003 269.436 128.693 259.56C119.102 246.601 109.401 230.798 96.5497 220.92C89.5607 215.549 81.9541 212.486 73.3009 210.944C67.8706 209.977 62.3229 209.837 56.8232 209.579L133.373 133.422L156.168 111.109C159.912 107.442 163.53 103.278 167.642 100.044C167.408 118.175 167.044 136.491 167.996 154.597C170.674 156.027 172.862 157.554 175.081 159.66Z"/>
	<path fill="#737984" transform="scale(3.31152 3.31152)" d="M258.144 285.529C264.943 286.474 271.923 286.343 278.659 287.538C292.227 302.882 304.377 319.627 316.819 335.892C312.407 335.498 295.373 332.447 292.643 333.525C288.402 328.719 284.961 322.747 281.207 317.506L258.144 285.529Z"/>
	<path fill="#041331" transform="scale(3.31152 3.31152)" d="M751.523 103.964C755.969 107.959 760.269 112.011 765.269 115.328C779.921 125.05 801.229 131.095 818.295 135.524C811.505 130.07 807.142 123.277 803.671 115.346C810.753 122.889 820.039 131.394 830.583 133.436C833.457 133.992 836.808 132.97 839.492 133.912C839.766 134.008 840.034 134.121 840.305 134.226C845.355 131.576 846.464 120.003 854.053 118.258C855.002 118.873 854.842 118.516 855.087 119.471C855.948 122.846 852.316 132.305 854.605 134.087C862.317 134.915 869.913 133.525 877.683 134.834Q866.749 136.444 855.842 138.222C855.239 138.319 854.728 138.299 854.125 138.246L854.208 138.775L854.295 138.241C854.445 138.32 854.59 138.407 854.744 138.476C858.157 140.012 862.396 140.087 865.948 141.432C871.409 143.499 876.782 146.975 881.918 149.811C874.536 149.27 866.62 147.312 859.522 145.273C866.536 150.411 871.325 156.054 877.266 162.27C879.795 164.916 882.788 167.376 885.084 170.211C887.08 172.675 888.11 175.907 889.904 178.524C892.346 182.084 896.949 185.495 900.141 188.444C906.636 194.445 913.395 200.109 920.171 205.788C924.444 209.368 929.28 212.797 932.834 217.112C934.033 218.567 934.7 219.923 934.941 221.796C935.692 227.622 933.007 241.85 929.346 246.272C926.443 249.779 922.291 251.942 917.981 253.199C915.948 255.799 913.254 258.28 909.793 258.616C906.768 258.909 903.565 257.079 901.365 255.167C898.268 252.474 896.13 248.346 892.739 246.092C888.243 243.105 882.91 242.034 878.835 238.33C878.065 238.454 877.573 238.612 876.857 238.939C874.175 240.162 870.353 240.462 867.442 240.995C854.172 243.424 840.709 244.812 827.855 239.823Q825.957 239.078 824.089 238.26C811.802 255.316 806.059 278.74 806.174 299.586C806.223 308.591 807.445 317.575 808.863 326.454C825.444 317.607 839.204 305.705 852.766 292.827C859.308 286.614 868.715 275.14 876.488 271.323C880.178 269.511 884.763 270.267 888.52 271.441C892.021 272.536 895.697 274.43 898.523 276.765C908.172 284.734 915.258 295.712 925.006 303.704C932.166 309.574 941.458 312.217 945.897 320.982C949.098 327.305 949.892 333.971 951.95 340.643C953.138 344.492 955.799 347.817 957.102 351.653C960.682 362.191 960.322 376.465 959.497 387.427C954.681 383.975 950.196 380.087 945.497 376.479C938.19 370.868 930.348 365.508 923.879 358.934C923.95 358.775 924.018 358.614 924.092 358.456C927.203 351.778 933.165 347.842 935.685 343.295C936.129 342.493 935.704 340.619 935.354 339.822C933.653 335.941 928.387 336.081 925.685 333.18C923.22 330.534 921.343 326.744 919.261 323.731C913.056 314.757 903.745 304.119 892.966 300.723C888.812 299.414 884.665 299.702 880.856 301.881C873.15 306.29 866.428 317.003 861.666 324.441C867.221 323.378 873.739 321.588 878.892 324.977C881.446 326.658 883.838 329.976 885.56 332.484C889.888 338.787 916.751 384.255 917.513 388.838C918.652 395.693 913.722 399.45 912.514 405.541C911.588 410.212 913.358 414.801 912.978 419.47C911.948 432.13 907.68 445.933 903.882 458.026C895.79 445.074 886.925 432.628 879.06 419.523C879.147 419.367 879.231 419.209 879.319 419.053C881.425 415.313 885.656 409.292 889.992 408.266C890.308 408.191 890.63 408.14 890.946 408.063C891.292 407.979 891.631 407.865 891.972 407.763C896.001 396.276 888.959 383.846 884.066 373.666C881.182 367.667 877.597 360.243 870.852 357.936C867.156 356.671 863.331 357.224 859.958 359.093C857.438 360.49 855.172 362.419 853.207 364.52C849.551 368.427 846.515 373.031 843.22 377.255C836.895 385.363 830.442 393.495 823.516 401.096C817.632 407.553 810.522 413.157 803.595 418.44C799.146 421.834 794.322 425.096 790.535 429.251C787.541 432.536 786.98 436.934 784.595 440.531C776.669 452.491 766.48 464.055 755.913 473.741C748.031 480.966 739.43 487.338 730.785 493.607Q708.146 509.857 684.486 524.58C672.922 531.727 661.182 538.423 649.816 545.91C646.898 556.435 643.058 567.427 642.466 578.375C641.425 597.582 649.15 612.35 639.909 631.386C633.652 644.274 621.786 655.67 611.427 665.424C600.749 675.477 589.783 685.228 579.079 695.265C573.635 700.371 568.125 705.22 563.283 710.935C554.622 721.157 544.604 737.386 544.517 751.218C544.412 767.93 558.156 799.979 565.38 815.473C565.959 816.715 567.214 818.92 567.295 820.245C567.402 822.004 566.197 823.565 567.13 825.416C568.799 828.727 583.928 833.474 587.881 835.853C594.755 839.988 599.202 846.941 605.842 851.172C607.28 854.437 608.731 857.684 610.451 860.812C611.842 863.341 616.825 869.335 616.8 871.866C614.989 873.843 610.848 873.853 608.293 873.977C602.129 874.277 593.303 874.02 587.329 872.435C585.055 871.832 582.58 870.275 580.457 869.226C579.665 870.57 579.621 871.9 579.402 873.423Q573.912 872.587 568.401 871.903C567.566 867.359 566.963 863.546 564.678 859.474C568.498 861.709 571.482 864.005 574.649 867.112C572.157 861.195 569.724 854.266 565.372 849.401C560.743 844.225 554.276 841.746 550.725 835.394C547.357 829.371 546.061 820.672 544.446 813.952C542.144 804.371 539.649 794.789 537.605 785.154C536.066 777.899 534.939 770.546 533.326 763.312C533.206 780.577 535.49 827.681 542.243 841.928C542.88 843.273 543.953 844.453 544.976 845.513C547.19 847.81 550.017 849.67 551.994 852.169C553.717 854.347 553.5 857.129 554.805 859.426C556.062 861.639 558.785 862.984 558.844 865.691C558.875 867.139 558.656 868.594 558.958 870.029C559.508 872.642 565.525 884.911 563.513 886.452C559.772 889.319 544.667 886.308 540.438 885.361C538.011 884.818 526.59 880.791 525.295 881.213L524.652 883.191L523.782 883.565C521.227 882.511 519.655 880.755 518.532 878.232C517.495 875.901 516.931 873.372 516.363 870.893C519.085 871.714 521.621 872.133 524.444 872.428Q522.99 865.914 520.282 859.814C521.08 856.401 521.928 852.992 522.663 849.566L522.299 849.082C516.425 841.421 508.267 835.797 505.68 826.08C507.151 822.54 509.567 818.977 510.273 815.223C514.147 794.625 502.363 756.468 495.967 736.713C493.631 729.496 489.565 720.499 490.233 712.822C490.894 705.232 499.167 699.499 503.472 693.759C512.415 681.839 517.1 664.967 514.923 650.215Q514.668 648.375 514.176 646.584Q513.685 644.793 512.965 643.081C509.372 634.569 501.851 627.697 496.657 620.098C488.907 608.76 482.933 594.944 478.105 582.079C465.065 614.817 448.942 633.221 449.521 671.833C443.344 663.676 439.876 655.937 437.171 646.098C425.727 667.061 420.387 693.648 423.214 717.462C415.834 702.92 415.156 691.786 414.855 675.871C405.023 694.276 400.249 717.587 403.5 738.27Q401.713 735.097 400.171 731.798Q398.628 728.5 397.34 725.094Q396.051 721.688 395.024 718.195Q393.996 714.701 393.235 711.14C376.53 728.493 369.763 744.587 369.287 768.507C365.954 756.253 366.19 746.777 367.237 734.254C350.147 741.607 338.918 759.743 329.144 774.692C329.836 766.522 330.996 758.567 332.491 750.507C311.793 755.379 297.732 768.06 285.709 785.04C288.243 773.321 293.799 763.504 299.185 752.944C281.107 757.881 255.654 764.697 241.471 777.431C238.168 780.397 235.693 783.823 233.2 787.468C234.313 777.574 237.063 770.643 245.047 764.246C249.848 760.399 255.371 757.787 260.5 754.462L259.723 754.585C254.521 755.379 249.217 755.564 243.971 755.9C214.822 757.768 203.577 757.912 182.668 780.617C187.465 764.22 201.001 752.648 213.765 742.184C189.392 738.52 159.99 736.417 138.969 751.921Q137.285 753.18 135.656 754.51C142.469 739.02 156.413 728.712 171.808 722.781C194.877 713.893 218.695 715.471 242.671 711.712C227.009 703.878 210.519 696.176 192.96 693.893C215.838 688.825 242.788 694.374 266.906 690.222C258.524 683.911 250.654 680.017 244.548 671.048C259.358 679.828 277.705 686.204 295.018 681.851C304.849 679.38 314.62 673.695 322.075 666.878C306.4 669.479 292.469 670.39 276.72 667.378C305.212 664.479 334.788 656.141 353.471 632.888C353.77 632.517 354.047 632.129 354.328 631.744C344.474 633.459 335.078 634.279 325.083 633.191C354.443 625.235 369.295 616.365 390.086 593.988C379.311 596.518 369.382 597.921 358.298 597.4C366.647 593.985 374.709 589.863 383.097 586.577C405.171 577.928 424.954 571.004 446.218 560.229C451.837 557.382 458.531 554.346 463.014 549.851C464.522 548.339 465.526 546.152 466.317 544.199C469.087 537.361 470.438 529.425 472.465 522.283C478.218 502.007 485.741 483.058 498.051 465.785C525.408 427.402 568.351 413.068 598.496 379.01C612.942 362.689 620.358 341.558 633.622 324.215Q640.17 315.804 647.751 308.311C652.692 303.441 661.164 297.539 664.384 291.636C666.62 287.536 667.724 282.38 669.101 277.928C671.052 271.618 673.132 265.447 675.745 259.377C693.073 219.129 722.654 184.529 763.176 166.413C779.222 159.239 796.86 155.862 814.313 154.779C817.651 154.572 822.106 153.915 825.246 155.15C825.947 155.425 826.423 155.903 826.934 156.431C827.168 157.565 827.327 157.338 826.684 158.44C822.007 160.162 816.88 160.459 811.994 161.316C805.162 162.514 798.333 163.991 791.717 166.081C759.365 176.305 733.316 196.439 713.196 223.478C706.619 232.318 700.7 241.359 696.08 251.404C689.385 265.96 685.566 281.253 682.209 296.847C674.441 302.912 666.354 307.981 659.176 314.844C636.935 336.108 622.195 368.744 618.445 399.246Q617.952 403.155 617.655 407.084Q617.357 411.012 617.255 414.951Q617.153 418.89 617.248 422.828Q617.342 426.767 617.632 430.696Q617.922 434.626 618.408 438.536Q618.893 442.445 619.573 446.326Q620.252 450.207 621.124 454.05Q621.995 457.892 623.057 461.686C611.878 438.366 606.092 421.895 606.223 395.495C592.384 406.211 576.684 414.07 562.01 423.516C520.226 450.411 491.46 484.811 485.005 535.506C480.719 569.164 492.778 591.653 509.648 619.225C515.733 629.17 521.556 638.949 523.376 650.67C525.803 666.305 521.113 683.882 511.956 696.735C508.156 702.07 498.936 708.82 498.56 715.648C498.264 721.014 504.856 733.658 507.05 739.294C512.359 752.934 523.36 798.364 522.11 813.087C521.622 818.836 518.271 824.038 516.809 829.586C520.286 836.519 527.133 841.676 532.436 847.205C533.034 850.034 533.456 852.31 533.132 855.219C532.923 857.095 532.676 859.11 532.842 860.992C533.086 863.755 535.582 870.252 533.989 872.438C531.821 871.098 529.867 867.746 528.403 865.646L530.226 872.674C537.7 878.788 547.527 879.194 556.743 880.635C554.172 875.895 552.018 871.007 549.544 866.232C547.958 863.173 545.769 860.105 544.507 856.92C543.889 855.363 543.826 853.456 543.667 851.805C541.938 850.083 539.883 848.272 538.596 846.194C524.444 823.357 523.182 760.787 523.123 733.398C523.109 726.904 522.89 720.248 524.181 713.849C527.245 698.653 541.371 685.671 551.146 674.24C565.023 658.012 594.088 624.19 598.592 604.126C601.821 589.736 595.819 574.381 590.813 561.067C573.314 514.528 558.272 473.788 589.369 427.853C575.442 462.288 575.342 491.574 589.803 525.85C594.136 536.122 599.683 546.596 605.078 556.377L605.322 556.123C603.34 550.317 600.598 544.673 598.347 538.944C589.229 515.74 583.98 497.48 584.645 472.113C589.008 483.776 592.767 495.244 604.979 500.868C619.885 507.733 645.589 502.9 660.245 497.284C685.922 487.445 710.978 465.532 722.15 440.127Q723 438.175 723.819 436.21C710.32 413.828 702.618 394.507 695.744 369.39C706.691 389.159 729.437 425.563 751.908 432.289C760.521 434.867 769.518 432.509 777.146 428.252C796.509 417.444 819.868 390.654 834.32 373.575C841.306 365.319 848.057 356.168 856.468 349.323C860.749 345.841 866.598 341.768 872.395 343.209C877.408 344.456 880.462 349.854 882.803 354.074C886.672 361.05 900.884 388.974 901.941 395.618C902.653 400.094 901.471 404.454 900.66 408.833C902.344 412.615 904.453 416.217 906.072 420.006C902.476 415.893 899.694 413.037 894.271 411.482C892.212 412.597 890.071 413.644 888.151 414.987C892.935 422.433 898.794 429.229 903.862 436.494C905.548 430.735 908.591 424.27 908.564 418.22C908.545 413.819 907.206 409.4 907.88 404.994C908.62 400.157 912.768 396.078 912.765 391.191C912.764 388.459 910.996 385.425 909.71 383.062C903.109 370.935 895.734 359.109 888.482 347.358C885.939 343.237 883.719 338.542 880.777 334.713C879.072 332.493 876.311 329.14 873.514 328.466C862.089 325.712 812.809 346.463 803.1 353.11C792.879 360.107 786.383 372.085 778.459 381.397C783.565 366.418 790.469 350.315 782.76 334.92C774.391 318.204 755.73 305.686 738.327 300.138C735.33 299.182 732.244 298.653 729.15 298.124C749.824 297.365 769.567 303.555 784.835 317.661C791.389 323.715 796.217 330.674 800.358 338.535L806.388 336.303C798.096 305.676 794.491 269.634 810.891 240.88C812.692 237.722 814.66 234.639 817.058 231.897C814.126 230.238 811.74 228.744 809.597 226.071C792.398 252.762 787.836 279.671 790.568 310.829C780.402 287.67 776.794 265.712 786.106 241.642C789.955 231.691 795.094 221.81 801.162 213.007C804.017 208.865 807.33 205.018 810.079 200.811C813.375 195.766 815.667 190.394 819.504 185.68C815.041 196.947 812.657 207.84 817.697 219.436C821.11 227.29 828.27 233.896 836.245 236.974C848.578 241.735 866.133 239.548 878.106 234.616C863.209 236.861 845.538 240.119 832.482 230.486C825.675 225.463 820.754 217.637 819.438 209.254C817.27 195.44 826.21 182.258 833.506 171.394C817.808 176.751 801.436 182.332 786.805 190.207C756.039 206.767 730.473 235.791 715.314 267.017Q714.393 268.919 713.561 270.862C731.383 266.704 745.905 269.951 762.271 277.588C738.941 275.369 717.915 283.55 699.901 298.357C695.479 301.992 691.523 306.067 687.721 310.336C690.807 269.42 712.298 234.552 742.979 208.206C765.082 189.227 789.587 177.789 817.778 170.944C824.497 169.313 831.65 168.81 838.215 166.98C833.313 175.247 828.67 187.039 831.099 196.757C833.147 204.953 840.696 213.124 847.903 217.297C852.256 219.817 857.171 221.217 862.018 222.453C859.996 226.525 857.593 230.272 854.98 233.987C864.836 232.506 873.514 228.551 882.779 225.144C887.111 226.477 891.596 228.137 894.99 231.248C901.592 237.301 900.488 244.631 911.013 246.99C912.857 247.403 915.047 247.771 916.819 246.953C915.255 244.573 906.776 244.488 904.813 240.013C904.348 238.952 904.561 237.168 904.584 236.017L904.837 235.804L905.211 236.301C907.913 239.831 911.02 241.586 915.465 242.147C918.526 242.533 922.481 242.965 925.357 241.766C928.746 238.126 930.334 229.902 930.173 224.964C930.036 220.786 927.368 218.361 924.424 215.713C915.295 207.501 887.377 187.201 882.688 177.704C879.203 170.645 872.438 164.882 866.243 160.12C861.253 159.484 853.672 160.583 849.341 158.182C847.37 157.09 845.739 155.358 843.953 153.998C842.827 153.141 841.941 153.366 840.622 153.575C840.507 153.724 840.388 153.87 840.276 154.022C840.117 154.237 839.97 154.462 839.809 154.675C838.538 156.362 838.673 157.784 838.629 159.828L838.613 160.731C836.749 159.814 835.134 157.246 833.782 155.634Q833.182 151.986 832.717 148.319C831.854 149.893 828.699 158.044 828.488 158.278C828.381 154.191 829.637 152.015 831.561 148.563C834.075 144.053 838.509 140.904 840.93 136.336L840.006 135.363C839.227 135.491 838.514 135.668 837.777 135.959C831.483 138.453 828.773 147.867 826.425 153.624C792.504 148.406 754.45 157.925 726.926 178.465C704.911 194.894 684.339 223.399 673.252 248.523C670.716 254.271 668.354 260.263 666.531 266.273C665.221 270.59 664.278 275.17 662.609 279.357C661.918 281.091 660.998 283.116 659.53 284.335C637.751 302.421 615.431 281.129 590.008 296.548C601.353 274.553 622.589 286.267 641.166 281.958C647.34 280.526 652.452 277.455 657.272 273.428C652.835 273.562 648.487 273.532 644.103 272.732C629.829 270.128 616.613 260.253 608.507 248.465C615.359 252.135 622.181 255.038 629.9 256.291C643.789 258.545 652.669 253.903 663.67 246.065C659.458 246.009 655.217 245.9 651.032 245.405C640.238 244.129 629.018 239.373 622.258 230.682C626.316 232.246 630.186 233.505 634.532 233.966C646.395 235.225 658.548 232.005 667.813 224.444Q667.174 224.453 666.535 224.453C649.958 224.453 633.669 222.138 621.472 209.934C624.244 211.101 627 212.215 629.91 212.994C652.32 218.986 672.477 209.707 691.449 198.6C675.778 198.186 661.915 191.69 649.594 182.324C652.704 182.657 655.779 182.931 658.902 182.579C669.655 181.366 685.988 175.219 695.247 169.607C684.855 170.888 673.122 168.508 664.328 162.793C682.71 166.454 701.71 156.07 717.254 147.44C706.714 141.517 701.657 136.516 693.278 127.943C709.669 130.703 725.972 126.321 742.116 123.764C748.91 122.688 755.753 122.133 762.606 121.608C757.199 115.925 754.289 111.302 751.523 103.964Z"/>
	<path fill="#FEFEFE" transform="scale(3.31152 3.31152)" d="M850.245 126.977L850.841 126.189C851.857 129.397 847.026 143.962 845.231 147.458C843.999 149.856 842.608 151.752 840.622 153.575C839.453 152.754 839.244 152.002 838.729 150.724C838.733 150.194 838.7 149.968 838.901 149.408C839.849 146.774 842.146 143.963 843.46 141.417C845.942 136.606 847.167 131.524 850.245 126.977Z"/>
	<path fill="#FEFEFE" transform="scale(3.31152 3.31152)" d="M935.238 350.5C942.639 350.127 946.703 352.449 952.242 357.16C952.973 360.186 954.432 365.485 953.59 368.443L952.728 368.312C947.352 363.403 936.98 359.41 933.131 354.071C933.454 352.353 934.128 351.82 935.238 350.5Z"/>
	<path fill="#FEFEFE" transform="scale(3.31152 3.31152)" d="M729.588 160.742C730.45 160.615 730.971 160.634 731.819 160.73L731.557 161.385C718.833 170.793 707.362 183.814 691.3 187.055C688.654 187.588 681.087 189.222 678.859 187.747C679.863 186.795 681.368 186.455 682.65 186C692.729 181.567 707.054 169.781 715.516 167.692C715.711 167.644 715.906 167.6 716.101 167.554L716.412 166.894L715.714 166.132C713.053 165.188 710.145 165.414 707.35 165.396C715.119 160.826 720.866 160.962 729.588 160.742Z"/>
	<path fill="#FEFEFE" transform="scale(3.31152 3.31152)" d="M571.276 832.541C573.598 833.32 575.822 834.878 577.911 836.147C593.162 845.408 595.848 856.632 607.555 867.781Q602.6 866.919 597.619 866.224C593.731 865.634 589.168 864.809 585.608 863.106C580.597 860.709 579.303 856.421 577.706 851.527L579.481 853.767C580.507 855.071 581.176 856.012 582.7 856.798L583.358 856.31C583.999 848.03 575.789 838.736 571.276 832.541Z"/>
	<path fill="#FEFEFE" transform="scale(3.31152 3.31152)" d="M609.651 586.882C609.817 587.125 610.027 587.343 610.148 587.611C611.265 590.089 611.326 594.629 611.483 597.352C611.892 604.437 610.989 611.067 608.59 617.753C604.833 628.226 598.458 637.3 591.8 646.099C573.919 669.729 546.03 695.352 534.895 722.261L534.87 722.338C530.958 713.175 570.799 666.675 577.866 657.915Q584.557 649.722 590.683 641.097C597.654 631.274 604.32 620.881 607.995 609.323C610.302 602.068 609.837 594.39 609.651 586.882Z"/>
	<path fill="#FEFEFE" transform="scale(3.31152 3.31152)" d="M370.37 663.908C370.405 666.035 369.353 668.515 368.666 670.513C357.315 703.534 341.103 723.323 309.554 738.933C309.66 738.408 323.883 726.153 326.936 722.964C344.142 704.992 357.47 685.074 370.37 663.908Z"/>
	<path fill="#FEFEFE" transform="scale(3.31152 3.31152)" d="M329.442 703.002L329.698 703.707Q328.604 705.309 327.405 706.834Q324.905 710.097 322.176 713.171Q319.447 716.245 316.503 719.113Q313.559 721.981 310.414 724.629Q307.27 727.277 303.943 729.69C278.684 748.27 255.604 745.063 226.728 748.572L226.32 748.233C230.93 745.237 242.073 744.385 247.699 743.323C282.505 736.758 303.142 727.229 329.442 703.002Z"/>
	<path fill="#FEFEFE" transform="scale(3.31152 3.31152)" d="M742.364 136.702C757.91 134.043 784.646 139.674 800.264 144.012C790.109 144.4 780.051 142.591 769.953 141.818C760.841 141.12 752.105 141.628 743.078 142.853C751.89 146.485 761.818 145.414 771.183 146.44C774.211 146.503 777.249 147.052 780.249 147.46C774.724 148.062 769.049 148.477 763.593 149.543C759.105 150.42 754.723 151.794 750.229 152.658C746.167 153.438 742.088 153.74 738.015 154.378C734.534 154.923 731.106 155.999 727.65 156.704C726.12 157.016 724.56 157.339 723.19 156.42C724.466 153.351 738.594 150.128 741.959 148.186C743.133 147.509 743.544 147.09 743.824 145.787C741.601 142.523 728.426 140.877 724.22 140.049C730.251 138.738 736.216 137.344 742.364 136.702Z"/>
	<path fill="#FEFEFE" transform="scale(3.31152 3.31152)" d="M471.686 569.961C472.568 577.201 432.485 626.164 425.62 636.329C418.909 646.265 413.131 656.464 407.714 667.148C407.671 667.003 407.612 666.862 407.585 666.713C407.01 663.523 409.291 657.335 410.069 654.148C417.571 623.386 432.433 613.957 453.01 592.89C459.992 585.742 465.912 578.091 471.686 569.961Z"/>
	<path fill="#FEFEFE" transform="scale(3.31152 3.31152)" d="M415.386 612.415C415.495 615.704 407.866 630.118 406.179 634.26C400.149 649.063 395.417 664.389 389.383 679.219C386.952 685.196 384.366 691.24 381.317 696.93C376.165 706.543 369.377 715.311 362.668 723.871C366.769 712.852 373.143 702.894 377 691.707Q372.121 698.447 367.322 705.244C361.035 713.85 353.506 721.726 344.702 727.775C351.974 716.962 358.429 705.701 365.419 694.717C371.178 685.666 377.456 676.938 382.815 667.632C393.413 649.229 402.846 629.594 415.386 612.415Z"/>
	<path fill="#FEFEFE" transform="scale(3.31152 3.31152)" d="M764.261 442.751C764.725 442.611 764.408 442.669 765.226 442.822C764.756 445.58 761.255 449.262 759.528 451.424C750.228 463.067 738.03 473.201 726.217 482.194C711.155 493.662 695.768 504.292 679.963 514.713C665.429 524.296 650.229 533.623 636.875 544.825C629.944 550.641 624.067 557.013 618.925 564.468C616.669 567.738 614.759 571.279 612.291 574.392C612.199 574.509 612.104 574.623 612.011 574.738C610.782 572.731 610.004 570.449 609.129 568.269C615.821 554.287 629.101 541.346 641.584 532.467C646.761 528.785 652.378 525.684 657.715 522.232L681.433 506.65Q700.478 493.818 718.69 479.828C732.341 469.495 745.798 458.94 753.863 443.436C757.358 443.457 760.787 443.102 764.261 442.751Z"/>
	<path fill="#FEFEFE" transform="scale(3.31152 3.31152)" d="M471.828 557.461C471.857 557.609 471.904 557.755 471.914 557.906C472.152 561.758 464.113 568.049 461.298 570.249C447.306 581.184 430.856 588.763 416.545 599.329C397.763 613.196 381.353 631.154 366.673 649.18C360.904 656.264 355.584 663.699 349.674 670.673C328.305 695.891 300.388 721.494 267.191 728.691C256.977 730.905 246.282 731.079 235.864 730.709C226.843 730.387 217.889 729.26 208.881 728.72Q192.52 727.822 176.193 729.201C175.551 728.911 175.867 728.915 175.248 729.136L175.921 729.19L175.912 728.931C187.646 726.358 198.795 725.731 210.768 725.289C246.133 723.402 276.484 721.233 305.251 697.318C287.618 701.822 283.688 704.418 264.439 703.337C293.3 696.399 321.152 687.57 342.135 665.305C352.107 654.724 360.716 642.878 370.178 631.84C379.775 620.645 389.892 610.171 401.544 601.086C410.087 594.424 418.894 588.171 428.385 582.92C443.155 574.748 458.649 568.203 471.828 557.461Z"/>
</svg>
